<svg width="963" height="1107" viewBox="0 0 963 1107" fill="none" xmlns="http://www.w3.org/2000/svg">
<path opacity="0.6" d="M28.8561 -432.987C52.8498 -465.635 88.8403 -482.819 136.828 -486.255C224.233 -493.129 273.934 -451.889 285.931 -362.536C339.06 -3.40582 397.33 300.738 459.028 549.895L834.357 -166.647C868.634 -231.943 911.48 -266.31 962.895 -269.746C1038.3 -274.901 1084.58 -226.788 1103.43 -125.407C1146.27 103.13 1201.12 297.301 1266.24 462.26C1310.8 25.8057 1386.21 -288.648 1492.47 -482.819C1518.18 -530.932 1555.88 -554.988 1605.58 -558.425C1645 -561.861 1680.99 -549.833 1713.55 -524.058C1746.12 -498.283 1763.25 -465.636 1766.68 -426.114C1768.4 -395.184 1763.25 -369.409 1749.54 -343.634C1682.7 -219.915 1627.86 -11.9973 1583.3 276.681C1540.46 556.768 1525.03 774.995 1535.31 931.363C1538.74 974.321 1531.89 1012.12 1514.75 1044.77C1494.18 1082.58 1463.33 1103.2 1423.92 1106.63C1379.36 1110.07 1333.08 1089.45 1288.52 1043.05C1129.14 879.813 1002.31 635.811 909.766 311.048C798.367 530.994 716.103 695.953 662.974 805.925C561.858 1000.1 476.166 1099.76 404.186 1104.91C357.912 1108.35 318.494 1068.83 284.217 986.35C196.812 761.249 102.551 326.513 1.43496 -317.859C-3.70654 -362.536 4.86246 -402.057 28.8561 -432.987Z" fill="white"/>
</svg>
